<?xml version="1.0" encoding="UTF-8" standalone="no"?>
<!DOCTYPE svg PUBLIC "-//W3C//DTD SVG 1.0//EN" "http://www.w3.org/TR/2001/PR-SVG-20010719/DTD/svg10.dtd">
<svg width="25cm" height="28cm" viewBox="44 97 485 559" xmlns="http://www.w3.org/2000/svg" xmlns:xlink="http://www.w3.org/1999/xlink">
  <g>
    <rect style="fill: #ffffff" x="59.6" y="98" width="193.1" height="118"/>
    <rect style="fill: none; fill-opacity:0; stroke-width: 2; stroke: #000000" x="59.6" y="98" width="193.1" height="118"/>
    <text font-size="12.8" style="fill: #000000;text-anchor:middle;font-family:sans-serif;font-style:normal;font-weight:normal" x="156.15" y="128.9">
      <tspan x="156.15" y="128.9">EU har gjort sig store</tspan>
      <tspan x="156.15" y="144.9">anstrengelser for at få den</tspan>
      <tspan x="156.15" y="160.9">nye copyright-forordning</tspan>
      <tspan x="156.15" y="176.9">til at fremstå som hjælp</tspan>
      <tspan x="156.15" y="192.9">til de små kunstnere</tspan>
    </text>
  </g>
  <text font-size="12.8" style="fill: #000000;text-anchor:start;font-family:sans-serif;font-style:normal;font-weight:normal" x="193.4" y="289">
    <tspan x="193.4" y="289"></tspan>
  </text>
  <text font-size="12.8" style="fill: #000000;text-anchor:start;font-family:sans-serif;font-style:normal;font-weight:normal" x="156.15" y="157">
    <tspan x="156.15" y="157"></tspan>
  </text>
  <text font-size="12.8" style="fill: #000000;text-anchor:start;font-family:sans-serif;font-style:normal;font-weight:normal" x="193.4" y="289">
    <tspan x="193.4" y="289"></tspan>
  </text>
  <text font-size="12.8" style="fill: #000000;text-anchor:start;font-family:sans-serif;font-style:normal;font-weight:normal" x="156.15" y="157">
    <tspan x="156.15" y="157"></tspan>
  </text>
  <text font-size="12.8" style="fill: #000000;text-anchor:start;font-family:sans-serif;font-style:normal;font-weight:normal" x="156.15" y="157">
    <tspan x="156.15" y="157"></tspan>
  </text>
  <g>
    <polygon style="fill: #ffffff" points="154.865,253.032 254.574,315.473 154.865,377.914 55.1564,315.473 "/>
    <polygon style="fill: none; fill-opacity:0; stroke-width: 2; stroke: #000000" points="154.865,253.032 254.574,315.473 154.865,377.914 55.1564,315.473 "/>
    <text font-size="12.8" style="fill: #000000;text-anchor:middle;font-family:sans-serif;font-style:normal;font-weight:normal" x="154.865" y="311.373">
      <tspan x="154.865" y="311.373">Er meme't rettet</tspan>
      <tspan x="154.865" y="327.373">imod Trump?</tspan>
    </text>
  </g>
  <text font-size="12.8" style="fill: #000000;text-anchor:start;font-family:sans-serif;font-style:normal;font-weight:normal" x="154.865" y="315.473">
    <tspan x="154.865" y="315.473"></tspan>
  </text>
  <text font-size="12.8" style="fill: #000000;text-anchor:start;font-family:sans-serif;font-style:normal;font-weight:normal" x="154.865" y="315.473">
    <tspan x="154.865" y="315.473"></tspan>
  </text>
  <text font-size="12.8" style="fill: #000000;text-anchor:start;font-family:sans-serif;font-style:normal;font-weight:normal" x="154.865" y="315.473">
    <tspan x="154.865" y="315.473"></tspan>
  </text>
  <g>
    <rect style="fill: #ffffff" x="45.9" y="568.1" width="217" height="86"/>
    <rect style="fill: none; fill-opacity:0; stroke-width: 2; stroke: #000000" x="45.9" y="568.1" width="217" height="86"/>
    <text font-size="12.8" style="fill: #000000;text-anchor:middle;font-family:sans-serif;font-style:normal;font-weight:normal" x="154.4" y="599">
      <tspan x="154.4" y="599">Hvis du har læst hertil,</tspan>
      <tspan x="154.4" y="615">keder du dig enormt og</tspan>
      <tspan x="154.4" y="631">kan roligt fortsætte lidt endnu</tspan>
    </text>
  </g>
  <text font-size="12.8" style="fill: #000000;text-anchor:start;font-family:sans-serif;font-style:normal;font-weight:normal" x="265" y="297">
    <tspan x="265" y="297">ja</tspan>
  </text>
  <text font-size="12.8" style="fill: #000000;text-anchor:start;font-family:sans-serif;font-style:normal;font-weight:normal" x="154.4" y="611.1">
    <tspan x="154.4" y="611.1"></tspan>
  </text>
  <text font-size="12.8" style="fill: #000000;text-anchor:start;font-family:sans-serif;font-style:normal;font-weight:normal" x="167.8" y="390">
    <tspan x="167.8" y="390">nej</tspan>
  </text>
  <text font-size="12.8" style="fill: #000000;text-anchor:start;font-family:sans-serif;font-style:normal;font-weight:normal" x="156.15" y="157">
    <tspan x="156.15" y="157"></tspan>
  </text>
  <text font-size="12.7998" style="fill: #000000;text-anchor:start;font-family:sans-serif;font-style:normal;font-weight:normal" x="154.865" y="315.473">
    <tspan x="154.865" y="315.473"></tspan>
  </text>
  <text font-size="12.7998" style="fill: #000000;text-anchor:start;font-family:sans-serif;font-style:normal;font-weight:normal" x="156.15" y="157">
    <tspan x="156.15" y="157"></tspan>
  </text>
  <text font-size="12.7998" style="fill: #000000;text-anchor:start;font-family:sans-serif;font-style:normal;font-weight:normal" x="156.15" y="157">
    <tspan x="156.15" y="157"></tspan>
  </text>
  <g>
    <rect style="fill: #ffffff" x="300.75" y="98.1" width="206.25" height="118"/>
    <rect style="fill: none; fill-opacity:0; stroke-width: 2; stroke: #000000" x="300.75" y="98.1" width="206.25" height="118"/>
    <text font-size="12.8" style="fill: #000000;text-anchor:middle;font-family:sans-serif;font-style:normal;font-weight:normal" x="403.875" y="129">
      <tspan x="403.875" y="129">Ærlighed betaler sig og som </tspan>
      <tspan x="403.875" y="145">konsekvens deraf faldt </tspan>
      <tspan x="403.875" y="161">forslaget i første omgang.</tspan>
      <tspan x="403.875" y="177"></tspan>
      <tspan x="403.875" y="193"> Sig det dog som det er:</tspan>
    </text>
  </g>
  <g>
    <polyline style="fill: none; fill-opacity:0; stroke-width: 2; stroke: #000000" points="252.7,157 276.725,157 276.725,157.1 291.014,157.1 "/>
    <polygon style="fill: #000000" points="298.514,157.1 288.514,162.1 291.014,157.1 288.514,152.1 "/>
    <polygon style="fill: none; fill-opacity:0; stroke-width: 2; stroke: #000000" points="298.514,157.1 288.514,162.1 291.014,157.1 288.514,152.1 "/>
  </g>
  <text font-size="12.7998" style="fill: #000000;text-anchor:start;font-family:sans-serif;font-style:normal;font-weight:normal" x="403.875" y="157.1">
    <tspan x="403.875" y="157.1"></tspan>
  </text>
  <text font-size="12.7998" style="fill: #000000;text-anchor:start;font-family:sans-serif;font-style:normal;font-weight:normal" x="403.875" y="157.1">
    <tspan x="403.875" y="157.1"></tspan>
  </text>
  <g>
    <polyline style="fill: none; fill-opacity:0; stroke-width: 2; stroke: #000000" points="403.875,216.1 403.875,229.75 154.865,229.75 154.865,243.296 "/>
    <polygon style="fill: #000000" points="154.865,250.796 149.865,240.796 154.865,243.296 159.865,240.796 "/>
    <polygon style="fill: none; fill-opacity:0; stroke-width: 2; stroke: #000000" points="154.865,250.796 149.865,240.796 154.865,243.296 159.865,240.796 "/>
  </g>
  <text font-size="12.7998" style="fill: #000000;text-anchor:start;font-family:sans-serif;font-style:normal;font-weight:normal" x="154.865" y="315.473">
    <tspan x="154.865" y="315.473"></tspan>
  </text>
  <g>
    <rect style="fill: #ffffff" x="309" y="273" width="198" height="85.75"/>
    <rect style="fill: none; fill-opacity:0; stroke-width: 2; stroke: #000000" x="309" y="273" width="198" height="85.75"/>
    <text font-size="12.7998" style="fill: #000000;text-anchor:middle;font-family:sans-serif;font-style:normal;font-weight:normal" x="408" y="303.775">
      <tspan x="408" y="303.775">Meme't er tilladt og</tspan>
      <tspan x="408" y="319.775">kunstneren kan fiske </tspan>
      <tspan x="408" y="335.775">i havet efter sine penge</tspan>
    </text>
  </g>
  <text font-size="12.7998" style="fill: #000000;text-anchor:start;font-family:sans-serif;font-style:normal;font-weight:normal" x="154.865" y="315.473">
    <tspan x="154.865" y="315.473"></tspan>
  </text>
  <g>
    <polyline style="fill: none; fill-opacity:0; stroke-width: 2; stroke: #000000" points="254.574,315.473 286.65,315.473 286.65,315.875 299.264,315.875 "/>
    <polygon style="fill: #000000" points="306.764,315.875 296.764,320.875 299.264,315.875 296.764,310.875 "/>
    <polygon style="fill: none; fill-opacity:0; stroke-width: 2; stroke: #000000" points="306.764,315.875 296.764,320.875 299.264,315.875 296.764,310.875 "/>
  </g>
  <text font-size="12.7998" style="fill: #000000;text-anchor:start;font-family:sans-serif;font-style:normal;font-weight:normal" x="408" y="315.875">
    <tspan x="408" y="315.875"></tspan>
  </text>
  <g>
    <polygon style="fill: #ffffff" points="154.509,409.85 254.218,472.291 154.509,534.732 54.8,472.291 "/>
    <polygon style="fill: none; fill-opacity:0; stroke-width: 2; stroke: #000000" points="154.509,409.85 254.218,472.291 154.509,534.732 54.8,472.291 "/>
    <text font-size="12.8" style="fill: #000000;text-anchor:middle;font-family:sans-serif;font-style:normal;font-weight:normal" x="154.509" y="468.191">
      <tspan x="154.509" y="468.191">Er meme't rettet</tspan>
      <tspan x="154.509" y="484.191">imod EU?</tspan>
    </text>
  </g>
  <g>
    <polyline style="fill: none; fill-opacity:0; stroke-width: 2; stroke: #000000" points="154.865,377.914 154.865,400.75 154.509,400.75 154.509,400.114 "/>
    <polygon style="fill: #000000" points="154.509,407.614 149.509,397.614 154.509,400.114 159.509,397.614 "/>
    <polygon style="fill: none; fill-opacity:0; stroke-width: 2; stroke: #000000" points="154.509,407.614 149.509,397.614 154.509,400.114 159.509,397.614 "/>
  </g>
  <text font-size="12.7998" style="fill: #000000;text-anchor:start;font-family:sans-serif;font-style:normal;font-weight:normal" x="154.509" y="472.291">
    <tspan x="154.509" y="472.291"></tspan>
  </text>
  <g>
    <rect style="fill: #ffffff" x="293.15" y="429.725" width="235.3" height="86"/>
    <rect style="fill: none; fill-opacity:0; stroke-width: 2; stroke: #000000" x="293.15" y="429.725" width="235.3" height="86"/>
    <text font-size="12.7998" style="fill: #000000;text-anchor:middle;font-family:sans-serif;font-style:normal;font-weight:normal" x="410.8" y="452.625">
      <tspan x="410.8" y="452.625">Meme't forfølges med lov</tspan>
      <tspan x="410.8" y="468.625">i hånd og som konsekvens</tspan>
      <tspan x="410.8" y="484.625">deraf får kunstneren nogle</tspan>
      <tspan x="410.8" y="500.625">penge, som han kan betale i skat</tspan>
    </text>
  </g>
  <text font-size="12.7998" style="fill: #000000;text-anchor:start;font-family:sans-serif;font-style:normal;font-weight:normal" x="410.8" y="472.725">
    <tspan x="410.8" y="472.725"></tspan>
  </text>
  <g>
    <polyline style="fill: none; fill-opacity:0; stroke-width: 2; stroke: #000000" points="254.218,472.291 272.18,472.291 272.18,472.725 283.414,472.725 "/>
    <polygon style="fill: #000000" points="290.914,472.725 280.914,477.725 283.414,472.725 280.914,467.725 "/>
    <polygon style="fill: none; fill-opacity:0; stroke-width: 2; stroke: #000000" points="290.914,472.725 280.914,477.725 283.414,472.725 280.914,467.725 "/>
  </g>
  <text font-size="12.8" style="fill: #000000;text-anchor:start;font-family:sans-serif;font-style:normal;font-weight:normal" x="265" y="450.75">
    <tspan x="265" y="450.75">ja</tspan>
  </text>
  <text font-size="12.8" style="fill: #000000;text-anchor:start;font-family:sans-serif;font-style:normal;font-weight:normal" x="184.8" y="535.75">
    <tspan x="184.8" y="535.75">nej</tspan>
  </text>
  <g>
    <polyline style="fill: none; fill-opacity:0; stroke-width: 2; stroke: #000000" points="154.509,534.732 154.509,556.75 154.4,556.75 154.4,558.364 "/>
    <polygon style="fill: #000000" points="154.4,565.864 149.4,555.864 154.4,558.364 159.4,555.864 "/>
    <polygon style="fill: none; fill-opacity:0; stroke-width: 2; stroke: #000000" points="154.4,565.864 149.4,555.864 154.4,558.364 159.4,555.864 "/>
  </g>
  <text font-size="12.7998" style="fill: #000000;text-anchor:start;font-family:sans-serif;font-style:normal;font-weight:normal" x="154.4" y="611.1">
    <tspan x="154.4" y="611.1"></tspan>
  </text>
  <text font-size="12.7998" style="fill: #000000;text-anchor:start;font-family:sans-serif;font-style:normal;font-weight:normal" x="154.509" y="472.291">
    <tspan x="154.509" y="472.291"></tspan>
  </text>
</svg>
