<?xml version="1.0" encoding="UTF-8" standalone="no"?>
<!DOCTYPE svg PUBLIC "-//W3C//DTD SVG 1.0//EN" "http://www.w3.org/TR/2001/PR-SVG-20010719/DTD/svg10.dtd">
<svg width="23cm" height="18cm" viewBox="97 70 449 359" xmlns="http://www.w3.org/2000/svg" xmlns:xlink="http://www.w3.org/1999/xlink">
  <g>
    <rect style="fill: #ffffff" x="112.175" y="90" width="183.65" height="70"/>
    <rect style="fill: none; fill-opacity:0; stroke-width: 2; stroke: #000000" x="112.175" y="90" width="183.65" height="70"/>
    <text font-size="12.8" style="fill: #000000;text-anchor:middle;font-family:sans-serif;font-style:normal;font-weight:normal" x="204" y="112.9">
      <tspan x="204" y="112.9">Skandaler er altid rare </tspan>
      <tspan x="204" y="128.9">at have ved hånden, når </tspan>
      <tspan x="204" y="144.9">man skal flæske lidt i EU</tspan>
    </text>
  </g>
  <text font-size="12.8" style="fill: #000000;text-anchor:start;font-family:sans-serif;font-style:normal;font-weight:normal" x="204" y="125">
    <tspan x="204" y="125"></tspan>
  </text>
  <g>
    <polygon style="fill: #ffffff" points="426.548,71.6396 524.27,124.737 426.548,177.835 328.826,124.737 "/>
    <polygon style="fill: none; fill-opacity:0; stroke-width: 2; stroke: #000000" points="426.548,71.6396 524.27,124.737 426.548,177.835 328.826,124.737 "/>
    <text font-size="12.8" style="fill: #000000;text-anchor:middle;font-family:sans-serif;font-style:normal;font-weight:normal" x="426.548" y="120.637">
      <tspan x="426.548" y="120.637">Du kan tælle </tspan>
      <tspan x="426.548" y="136.637">til en milliard?</tspan>
    </text>
  </g>
  <g>
    <polyline style="fill: none; fill-opacity:0; stroke-width: 2; stroke: #000000" points="295.824,125 314.688,125 314.688,124.737 319.09,124.737 "/>
    <polygon style="fill: #000000" points="326.59,124.737 316.59,129.737 319.09,124.737 316.59,119.737 "/>
    <polygon style="fill: none; fill-opacity:0; stroke-width: 2; stroke: #000000" points="326.59,124.737 316.59,129.737 319.09,124.737 316.59,119.737 "/>
  </g>
  <text font-size="12.8" style="fill: #000000;text-anchor:start;font-family:sans-serif;font-style:normal;font-weight:normal" x="426.548" y="124.737">
    <tspan x="426.548" y="124.737"></tspan>
  </text>
  <g>
    <rect style="fill: #ffffff" x="109" y="228.5" width="190" height="70"/>
    <rect style="fill: none; fill-opacity:0; stroke-width: 2; stroke: #000000" x="109" y="228.5" width="190" height="70"/>
    <text font-size="12.8" style="fill: #000000;text-anchor:middle;font-family:sans-serif;font-style:normal;font-weight:normal" x="204" y="251.4">
      <tspan x="204" y="251.4">Læs om EU's rejsecirkus,</tspan>
      <tspan x="204" y="267.4">det er altid et godt grin</tspan>
      <tspan x="204" y="283.4"></tspan>
    </text>
  </g>
  <text font-size="12.8" style="fill: #000000;text-anchor:start;font-family:sans-serif;font-style:normal;font-weight:normal" x="204" y="263.5">
    <tspan x="204" y="263.5"></tspan>
  </text>
  <g>
    <polyline style="fill: none; fill-opacity:0; stroke-width: 2; stroke: #000000" points="426.548,177.835 426.548,196 204,196 204,218.764 "/>
    <polygon style="fill: #000000" points="204,226.264 199,216.264 204,218.764 209,216.264 "/>
    <polygon style="fill: none; fill-opacity:0; stroke-width: 2; stroke: #000000" points="204,226.264 199,216.264 204,218.764 209,216.264 "/>
  </g>
  <text font-size="12.8" style="fill: #000000;text-anchor:start;font-family:sans-serif;font-style:normal;font-weight:normal" x="204" y="263.5">
    <tspan x="204" y="263.5"></tspan>
  </text>
  <g>
    <rect style="fill: #ffffff" x="98.75" y="358.1" width="210.5" height="70"/>
    <rect style="fill: none; fill-opacity:0; stroke-width: 2; stroke: #000000" x="98.75" y="358.1" width="210.5" height="70"/>
    <text font-size="12.8" style="fill: #000000;text-anchor:middle;font-family:sans-serif;font-style:normal;font-weight:normal" x="204" y="389">
      <tspan x="204" y="389">Læs om blyantspengene, </tspan>
      <tspan x="204" y="405">så skal du nok få det lært!</tspan>
    </text>
  </g>
  <g>
    <polyline style="fill: none; fill-opacity:0; stroke-width: 2; stroke: #000000" points="524.27,124.737 520,124.737 520,318 204,318 204,348.364 "/>
    <polygon style="fill: #000000" points="204,355.864 199,345.864 204,348.364 209,345.864 "/>
    <polygon style="fill: none; fill-opacity:0; stroke-width: 2; stroke: #000000" points="204,355.864 199,345.864 204,348.364 209,345.864 "/>
  </g>
  <text font-size="12.8" style="fill: #000000;text-anchor:start;font-family:sans-serif;font-style:normal;font-weight:normal" x="439" y="191">
    <tspan x="439" y="191">ja</tspan>
  </text>
  <text font-size="12.8" style="fill: #000000;text-anchor:start;font-family:sans-serif;font-style:normal;font-weight:normal" x="527" y="141">
    <tspan x="527" y="141">nej</tspan>
  </text>
  <text font-size="12.7998" style="fill: #000000;text-anchor:start;font-family:sans-serif;font-style:normal;font-weight:normal" x="204" y="263.5">
    <tspan x="204" y="263.5"></tspan>
  </text>
</svg>
