<?xml version="1.0" encoding="UTF-8" standalone="no"?>
<!DOCTYPE svg PUBLIC "-//W3C//DTD SVG 1.0//EN" "http://www.w3.org/TR/2001/PR-SVG-20010719/DTD/svg10.dtd">
<svg width="19cm" height="27cm" viewBox="3063 -1095 366 522" xmlns="http://www.w3.org/2000/svg" xmlns:xlink="http://www.w3.org/1999/xlink">
  <text font-size="12.7998" style="fill: #000000;text-anchor:start;font-family:sans-serif;font-style:normal;font-weight:normal" x="3063.89" y="-732.303">
    <tspan x="3063.89" y="-732.303"></tspan>
  </text>
  <g>
    <rect style="fill: #ffffff" x="3083.72" y="-613.75" width="128.275" height="40"/>
    <rect style="fill: none; fill-opacity:0; stroke-width: 2; stroke: #000000" x="3083.72" y="-613.75" width="128.275" height="40"/>
    <text font-size="12.7998" style="fill: #000000;text-anchor:middle;font-family:sans-serif;font-style:normal;font-weight:normal" x="3147.86" y="-589.85">
      <tspan x="3147.86" y="-589.85">Guy, det er dig!</tspan>
    </text>
  </g>
  <text font-size="12.7998" style="fill: #000000;text-anchor:start;font-family:sans-serif;font-style:normal;font-weight:normal" x="3293.18" y="-849.45">
    <tspan x="3293.18" y="-849.45"></tspan>
  </text>
  <text font-size="12.7998" style="fill: #000000;text-anchor:start;font-family:sans-serif;font-style:normal;font-weight:normal" x="3293.18" y="-849.45">
    <tspan x="3293.18" y="-849.45"></tspan>
  </text>
  <text font-size="12.7998" style="fill: #000000;text-anchor:start;font-family:sans-serif;font-style:normal;font-weight:normal" x="2916.25" y="-737.25">
    <tspan x="2916.25" y="-737.25"></tspan>
  </text>
  <text font-size="12.7998" style="fill: #000000;text-anchor:start;font-family:sans-serif;font-style:normal;font-weight:normal" x="2916.25" y="-737.25">
    <tspan x="2916.25" y="-737.25"></tspan>
  </text>
  <text font-size="12.7998" style="fill: #000000;text-anchor:start;font-family:sans-serif;font-style:normal;font-weight:normal" x="2916.25" y="-737.25">
    <tspan x="2916.25" y="-737.25"></tspan>
  </text>
  <text font-size="12.7998" style="fill: #000000;text-anchor:start;font-family:sans-serif;font-style:normal;font-weight:normal" x="3147.86" y="-593.75">
    <tspan x="3147.86" y="-593.75"></tspan>
  </text>
  <text font-size="12.7998" style="fill: #000000;text-anchor:start;font-family:sans-serif;font-style:normal;font-weight:normal" x="3147.86" y="-593.75">
    <tspan x="3147.86" y="-593.75"></tspan>
  </text>
  <text font-size="12.7998" style="fill: #000000;text-anchor:start;font-family:sans-serif;font-style:normal;font-weight:normal" x="3147.86" y="-593.75">
    <tspan x="3147.86" y="-593.75"></tspan>
  </text>
  <g>
    <polygon style="fill: #ffffff" points="3357.26,-822.203 3428,-784.477 3357.26,-746.75 3286.52,-784.477 "/>
    <polygon style="fill: none; fill-opacity:0; stroke-width: 2; stroke: #000000" points="3357.26,-822.203 3428,-784.477 3357.26,-746.75 3286.52,-784.477 "/>
    <text font-size="12.7998" style="fill: #000000;text-anchor:middle;font-family:sans-serif;font-style:normal;font-weight:normal" x="3357.26" y="-780.577">
      <tspan x="3357.26" y="-780.577">I Italien?</tspan>
    </text>
  </g>
  <text font-size="12.7998" style="fill: #000000;text-anchor:start;font-family:sans-serif;font-style:normal;font-weight:normal" x="2916.25" y="-737.25">
    <tspan x="2916.25" y="-737.25"></tspan>
  </text>
  <text font-size="12.7998" style="fill: #000000;text-anchor:start;font-family:sans-serif;font-style:normal;font-weight:normal" x="3357.26" y="-784.477">
    <tspan x="3357.26" y="-784.477"></tspan>
  </text>
  <g>
    <polygon style="fill: #ffffff" points="3355.79,-913.264 3422,-878.007 3355.79,-842.75 3289.57,-878.007 "/>
    <polygon style="fill: none; fill-opacity:0; stroke-width: 2; stroke: #000000" points="3355.79,-913.264 3422,-878.007 3355.79,-842.75 3289.57,-878.007 "/>
    <text font-size="12.7998" style="fill: #000000;text-anchor:middle;font-family:sans-serif;font-style:normal;font-weight:normal" x="3355.79" y="-874.107">
      <tspan x="3355.79" y="-874.107">I Polen?</tspan>
    </text>
  </g>
  <g>
    <polygon style="fill: #ffffff" points="3357.08,-720.535 3428.58,-682.365 3357.08,-644.195 3285.58,-682.365 "/>
    <polygon style="fill: none; fill-opacity:0; stroke-width: 2; stroke: #000000" points="3357.08,-720.535 3428.58,-682.365 3357.08,-644.195 3285.58,-682.365 "/>
    <text font-size="12.7998" style="fill: #000000;text-anchor:middle;font-family:sans-serif;font-style:normal;font-weight:normal" x="3357.08" y="-678.465">
      <tspan x="3357.08" y="-678.465">I England?</tspan>
    </text>
  </g>
  <text font-size="12.7998" style="fill: #000000;text-anchor:start;font-family:sans-serif;font-style:normal;font-weight:normal" x="3355.79" y="-878.007">
    <tspan x="3355.79" y="-878.007"></tspan>
  </text>
  <text font-size="12.7998" style="fill: #000000;text-anchor:start;font-family:sans-serif;font-style:normal;font-weight:normal" x="3355.79" y="-878.007">
    <tspan x="3355.79" y="-878.007"></tspan>
  </text>
  <text font-size="12.7998" style="fill: #000000;text-anchor:start;font-family:sans-serif;font-style:normal;font-weight:normal" x="3147.86" y="-593.75">
    <tspan x="3147.86" y="-593.75"></tspan>
  </text>
  <text font-size="12.7998" style="fill: #000000;text-anchor:start;font-family:sans-serif;font-style:normal;font-weight:normal" x="3147.86" y="-593.75">
    <tspan x="3147.86" y="-593.75"></tspan>
  </text>
  <g>
    <rect style="fill: #ffffff" x="3104.32" y="-973.45" width="158.4" height="70"/>
    <rect style="fill: none; fill-opacity:0; stroke-width: 2; stroke: #000000" x="3104.32" y="-973.45" width="158.4" height="70"/>
    <text font-size="12.7998" style="fill: #000000;text-anchor:middle;font-family:sans-serif;font-style:normal;font-weight:normal" x="3183.53" y="-950.55">
      <tspan x="3183.53" y="-950.55">Du keder dig,</tspan>
      <tspan x="3183.53" y="-934.55">eller også er </tspan>
      <tspan x="3183.53" y="-918.55">du er en kedelig type</tspan>
    </text>
  </g>
  <text font-size="12.7998" style="fill: #000000;text-anchor:start;font-family:sans-serif;font-style:normal;font-weight:normal" x="3068" y="-494.75">
    <tspan x="3068" y="-494.75"></tspan>
  </text>
  <text font-size="12.7998" style="fill: #000000;text-anchor:start;font-family:sans-serif;font-style:normal;font-weight:normal" x="2916.25" y="-737.25">
    <tspan x="2916.25" y="-737.25"></tspan>
  </text>
  <text font-size="12.7998" style="fill: #000000;text-anchor:start;font-family:sans-serif;font-style:normal;font-weight:normal" x="2916.25" y="-737.25">
    <tspan x="2916.25" y="-737.25"></tspan>
  </text>
  <text font-size="12.7998" style="fill: #000000;text-anchor:start;font-family:sans-serif;font-style:normal;font-weight:normal" x="3081.1" y="-1000.55">
    <tspan x="3081.1" y="-1000.55">nej</tspan>
  </text>
  <g>
    <polygon style="fill: #ffffff" points="3178.72,-1093.13 3254.64,-1039.85 3178.72,-986.562 3102.81,-1039.85 "/>
    <polygon style="fill: none; fill-opacity:0; stroke-width: 2; stroke: #000000" points="3178.72,-1093.13 3254.64,-1039.85 3178.72,-986.562 3102.81,-1039.85 "/>
    <text font-size="12.7998" style="fill: #000000;text-anchor:middle;font-family:sans-serif;font-style:normal;font-weight:normal" x="3178.72" y="-1043.95">
      <tspan x="3178.72" y="-1043.95">Demokrati</tspan>
      <tspan x="3178.72" y="-1027.95">er godt</tspan>
    </text>
  </g>
  <text font-size="12.7998" style="fill: #000000;text-anchor:start;font-family:sans-serif;font-style:normal;font-weight:normal" x="3178.72" y="-1039.85">
    <tspan x="3178.72" y="-1039.85"></tspan>
  </text>
  <g>
    <polyline style="fill: none; fill-opacity:0; stroke-width: 2; stroke: #000000" points="3254.64,-1039.85 3254.64,-1038.75 3355.79,-1038.75 3355.79,-923 "/>
    <polygon style="fill: #000000" points="3355.79,-915.5 3350.79,-925.5 3355.79,-923 3360.79,-925.5 "/>
    <polygon style="fill: none; fill-opacity:0; stroke-width: 2; stroke: #000000" points="3355.79,-915.5 3350.79,-925.5 3355.79,-923 3360.79,-925.5 "/>
  </g>
  <text font-size="12.7998" style="fill: #000000;text-anchor:start;font-family:sans-serif;font-style:normal;font-weight:normal" x="3183.53" y="-938.45">
    <tspan x="3183.53" y="-938.45"></tspan>
  </text>
  <g>
    <rect style="fill: #ffffff" x="3289.9" y="-625.45" width="137.25" height="49.7"/>
    <rect style="fill: none; fill-opacity:0; stroke-width: 2; stroke: #000000" x="3289.9" y="-625.45" width="137.25" height="49.7"/>
    <text font-size="12.7998" style="fill: #000000;text-anchor:middle;font-family:sans-serif;font-style:normal;font-weight:normal" x="3358.53" y="-596.7">
      <tspan x="3358.53" y="-596.7">Du er jo ikke Guy!</tspan>
    </text>
  </g>
  <g>
    <polyline style="fill: none; fill-opacity:0; stroke-width: 2; stroke: #000000" points="3289.57,-878.007 3289.57,-875.75 3115.79,-875.75 3115.79,-623.486 "/>
    <polygon style="fill: #000000" points="3115.79,-615.986 3110.79,-625.986 3115.79,-623.486 3120.79,-625.986 "/>
    <polygon style="fill: none; fill-opacity:0; stroke-width: 2; stroke: #000000" points="3115.79,-615.986 3110.79,-625.986 3115.79,-623.486 3120.79,-625.986 "/>
  </g>
  <g>
    <polyline style="fill: none; fill-opacity:0; stroke-width: 2; stroke: #000000" points="3102.81,-1039.85 3074.77,-1039.85 3074.77,-938.45 3094.59,-938.45 "/>
    <polygon style="fill: #000000" points="3102.09,-938.45 3092.09,-933.45 3094.59,-938.45 3092.09,-943.45 "/>
    <polygon style="fill: none; fill-opacity:0; stroke-width: 2; stroke: #000000" points="3102.09,-938.45 3092.09,-933.45 3094.59,-938.45 3092.09,-943.45 "/>
  </g>
  <text font-size="12.7998" style="fill: #000000;text-anchor:start;font-family:sans-serif;font-style:normal;font-weight:normal" x="3272" y="-1013.75">
    <tspan x="3272" y="-1013.75">ja</tspan>
  </text>
  <g>
    <polyline style="fill: none; fill-opacity:0; stroke-width: 2; stroke: #000000" points="3286.52,-784.477 3286.52,-782.75 3147.86,-782.75 3147.86,-623.486 "/>
    <polygon style="fill: #000000" points="3147.86,-615.986 3142.86,-625.986 3147.86,-623.486 3152.86,-625.986 "/>
    <polygon style="fill: none; fill-opacity:0; stroke-width: 2; stroke: #000000" points="3147.86,-615.986 3142.86,-625.986 3147.86,-623.486 3152.86,-625.986 "/>
  </g>
  <g>
    <polyline style="fill: none; fill-opacity:0; stroke-width: 2; stroke: #000000" points="3285.58,-682.365 3285.58,-682.75 3179.93,-682.75 3179.93,-623.486 "/>
    <polygon style="fill: #000000" points="3179.93,-615.986 3174.93,-625.986 3179.93,-623.486 3184.93,-625.986 "/>
    <polygon style="fill: none; fill-opacity:0; stroke-width: 2; stroke: #000000" points="3179.93,-615.986 3174.93,-625.986 3179.93,-623.486 3184.93,-625.986 "/>
  </g>
  <text font-size="12.7998" style="fill: #000000;text-anchor:start;font-family:sans-serif;font-style:normal;font-weight:normal" x="3358.53" y="-600.6">
    <tspan x="3358.53" y="-600.6"></tspan>
  </text>
  <text font-size="12.7998" style="fill: #000000;text-anchor:start;font-family:sans-serif;font-style:normal;font-weight:normal" x="3378.1" y="-835.55">
    <tspan x="3378.1" y="-835.55">ja</tspan>
  </text>
  <text font-size="12.7998" style="fill: #000000;text-anchor:start;font-family:sans-serif;font-style:normal;font-weight:normal" x="3383.2" y="-736.25">
    <tspan x="3383.2" y="-736.25">ja</tspan>
  </text>
  <text font-size="12.7998" style="fill: #000000;text-anchor:start;font-family:sans-serif;font-style:normal;font-weight:normal" x="3380.3" y="-635.95">
    <tspan x="3380.3" y="-635.95">ja</tspan>
  </text>
  <text font-size="12.7998" style="fill: #000000;text-anchor:start;font-family:sans-serif;font-style:normal;font-weight:normal" x="3278.1" y="-660.55">
    <tspan x="3278.1" y="-660.55">nej</tspan>
  </text>
  <text font-size="12.7998" style="fill: #000000;text-anchor:start;font-family:sans-serif;font-style:normal;font-weight:normal" x="3278" y="-760.75">
    <tspan x="3278" y="-760.75">nej</tspan>
  </text>
  <text font-size="12.7998" style="fill: #000000;text-anchor:start;font-family:sans-serif;font-style:normal;font-weight:normal" x="3278" y="-851.75">
    <tspan x="3278" y="-851.75">nej</tspan>
  </text>
  <g>
    <polyline style="fill: none; fill-opacity:0; stroke-width: 2; stroke: #000000" points="3355.79,-842.75 3355.79,-840.75 3357.26,-840.75 3357.26,-831.939 "/>
    <polygon style="fill: #000000" points="3357.26,-824.439 3352.26,-834.439 3357.26,-831.939 3362.26,-834.439 "/>
    <polygon style="fill: none; fill-opacity:0; stroke-width: 2; stroke: #000000" points="3357.26,-824.439 3352.26,-834.439 3357.26,-831.939 3362.26,-834.439 "/>
  </g>
  <g>
    <polyline style="fill: none; fill-opacity:0; stroke-width: 2; stroke: #000000" points="3357.26,-746.75 3357.26,-742.75 3357.08,-742.75 3357.08,-730.271 "/>
    <polygon style="fill: #000000" points="3357.08,-722.771 3352.08,-732.771 3357.08,-730.271 3362.08,-732.771 "/>
    <polygon style="fill: none; fill-opacity:0; stroke-width: 2; stroke: #000000" points="3357.08,-722.771 3352.08,-732.771 3357.08,-730.271 3362.08,-732.771 "/>
  </g>
  <g>
    <polyline style="fill: none; fill-opacity:0; stroke-width: 2; stroke: #000000" points="3357.08,-644.195 3357.08,-639.45 3358.53,-639.45 3358.53,-635.186 "/>
    <polygon style="fill: #000000" points="3358.53,-627.686 3353.53,-637.686 3358.53,-635.186 3363.53,-637.686 "/>
    <polygon style="fill: none; fill-opacity:0; stroke-width: 2; stroke: #000000" points="3358.53,-627.686 3353.53,-637.686 3358.53,-635.186 3363.53,-637.686 "/>
  </g>
  <text font-size="12.7998" style="fill: #000000;text-anchor:start;font-family:sans-serif;font-style:normal;font-weight:normal" x="3358.53" y="-600.6">
    <tspan x="3358.53" y="-600.6"></tspan>
  </text>
</svg>
